<svg id="svg64" xmlns="http://www.w3.org/2000/svg" viewBox="0 0 94.89 76.39"><defs></defs><title>kyoryu</title><g id="layer2"><path id="path4650" class="cls-1" d="M46.73,10a32.43,32.43,0,0,0-7.73.86A36.32,36.32,0,0,0,24.83,18a36.91,36.91,0,0,0-10.34,12.9A42.77,42.77,0,0,0,11,44.1a62,62,0,0,0-.43,6.39A13.7,13.7,0,0,1,5.44,55a13.44,13.44,0,0,1-3.95,1.28,14.58,14.58,0,0,0,10,3A35.24,35.24,0,0,0,21.85,76a36.29,36.29,0,0,0,13.87,7.68A46.52,46.52,0,0,0,51.39,85.3a83.47,83.47,0,0,0,15.22-2.41,171,171,0,0,0,16.88-5.13,37.94,37.94,0,0,0,5.73-2.41A21.46,21.46,0,0,0,94.79,71a5.33,5.33,0,0,1-2,.4,7.18,7.18,0,0,1-3.52-1,13.84,13.84,0,0,1-4.37-3.94,20.14,20.14,0,0,1-3.41-7.14A20.42,20.42,0,0,1,80.93,55a13.13,13.13,0,0,0,6.56,0,12.35,12.35,0,0,0,2.63-1,6.27,6.27,0,0,1-2.2-.68,11.42,11.42,0,0,1-3-2.56Q83.39,49,82,47.17A43.77,43.77,0,0,0,76.51,28a36.48,36.48,0,0,0-9.37-11,34.09,34.09,0,0,0-20.41-7ZM31.5,33.61a4,4,0,0,1,0,8h0a4,4,0,0,1-3.92-4h0A4,4,0,0,1,31.5,33.61Zm29.54,0a4,4,0,0,1,3.92,4h0a4,4,0,0,1-3.92,4h0a4,4,0,0,1-3.92-4h0A4,4,0,0,1,61,33.61Z" transform="translate(-0.27 -9.49)"/></g></svg>