<svg id="kyoryu" xmlns="http://www.w3.org/2000/svg" width="319.032" height="257.768" viewBox="0 0 319.032 257.768"><defs><style>.a{fill:#fff;}</style></defs><g transform="translate(0 0)"><path class="a" d="M156.183,10a110.019,110.019,0,0,0-26.426,2.938C112.014,17.158,95.5,25.917,81.292,37.352,66.49,49.265,54,64.236,45.943,81.442c-6.638,14.176-10.191,29.64-12.021,45.186a217.1,217.1,0,0,0-1.463,21.825,46.673,46.673,0,0,1-17.484,15.34,46.541,46.541,0,0,1-13.484,4.374,49.942,49.942,0,0,0,34.253,10.2,121.046,121.046,0,0,0,8.054,21.1,119.65,119.65,0,0,0,27.308,36.07,123.975,123.975,0,0,0,47.41,26.286c17.305,5.135,35.567,6.611,53.594,5.67,17.567-.917,34.951-4.094,52.044-8.248a585.132,585.132,0,0,0,57.721-17.524,134.881,134.881,0,0,0,19.581-8.241,73.719,73.719,0,0,0,19.067-14.946,18.889,18.889,0,0,1-6.758,1.369,24.762,24.762,0,0,1-12.021-3.279,47.207,47.207,0,0,1-14.939-13.484,68.207,68.207,0,0,1-13.691-39.229,44.426,44.426,0,0,0,31.435-3.606A21.493,21.493,0,0,1,297,157.963c-3.98-2.107-7.18-5.406-10.2-8.749q-5.279-5.846-10.084-12.095a153.442,153.442,0,0,0-2.671-21.792,146.072,146.072,0,0,0-16.035-43.723,125.025,125.025,0,0,0-32.063-37.532A116.559,116.559,0,0,0,156.183,10ZM104.092,90.759a13.656,13.656,0,1,1-13.4,13.651,13.528,13.528,0,0,1,13.4-13.651Zm101,0a13.656,13.656,0,1,1-13.4,13.653,13.529,13.529,0,0,1,13.4-13.653Z" transform="translate(-1.492 -9.993)"/></g></svg>